<svg id="Layer_1" data-name="Layer 1" xmlns="http://www.w3.org/2000/svg" viewBox="0 0 1417.32 1417.32"><path d="M946,910.86h44.2V794.15c0-1.59,0-3.18,0-4.77-.07-4.64,1.12-8.75,6.61-8.63,5.07.11,6.14,3.94,6.13,8.43q-.07,62.85,0,125.7c0,6.92-1.86,8.7-8.87,8.89-1.39,0-2.78,0-4.17,0H427.54c-2,0-4,0-6,0-4.73-.19-7.4-2.46-7.32-7.43,0-1.59,0-3.17,0-4.76q0-151.32-.1-302.62c0-12.65,3.06-23.5,13.38-32.18-14.2-9.28-22.62-21.83-22.71-38.91A42.54,42.54,0,0,1,418,506.32a44,44,0,0,1,63.38,1.49c18.85,20.42,15,46.26-9.4,68.09,3.59,6.59,6.93,13,10.55,19.18a5.65,5.65,0,0,0,3.83,2.56c6.52.26,13.06.12,20.46.12,0-9.09-.06-17.76,0-26.44,0-4,2.25-6.56,6.2-6.53s6.09,2.5,6.19,6.54c0,1.59,0,3.17,0,4.76v22.43l40.65-3.4c0-9.73,0-18,0-26.34,0-4.47.58-8.62,6.18-9.11,4.32-.38,6.57,2.89,6.6,9.2,0,6.71,0,13.41,0,20.82,13.61-5.05,24.69-12.75,35.08-21.74,4.08-3.54,6-7.19,5.63-12.73-.52-7.11-.12-14.28-.12-21.43,0-4.32,1.52-7.6,6.33-7.63s6.38,3.34,6.44,7.58c.07,5.68,0,11.36,0,16.16,13.07-5.56,25.94-10.94,38.68-16.61,1.07-.47,1.8-2.82,1.84-4.32.19-7.14.14-14.29.06-21.44,0-4.58.62-8.76,6.36-8.69s6.18,4.48,6.16,8.91c0,7.13,0,14.25,0,21.59H738V512.75c0-2.19,0-4.37,0-6.56,0-4.34,1.6-7.53,6.49-7.37,4.52.14,6,3.18,6,7.29,0,8.72,0,17.44,0,25.39L791,550.41c0-4.63,0-9.67,0-14.72,0-4.61.27-9.38,6.3-9.49s6.58,4.48,6.53,9.21c-.08,6.35.47,12.76-.16,19.05s1.86,10.3,6.41,14.17c10.17,8.64,21,16.08,34.32,21.11,0-7.76,0-14.83,0-21.9,0-4.51,1.32-8.16,6.46-8.12s6.33,3.91,6.34,8.29c0,8.51,0,17,0,27l40.66,3.6c0-9.65,0-18.1,0-26.55,0-4.53,2.06-7.5,6.64-7.3,4.3.2,5.89,3.42,5.87,7.53,0,8.29,0,16.58,0,25.43,7.43,0,14.13.15,20.82-.14,1.24-.06,2.79-1.67,3.53-3,3.55-6,6.87-12.22,10.56-18.87-12.85-8.4-21.28-21-21.2-38.43A42.4,42.4,0,0,1,937.54,506a43.9,43.9,0,0,1,63.35,2.16c18.73,20.54,14.59,47.08-11.1,68.84,11.28,9.1,13.31,21.44,13.2,35.11-.34,46.07-.13,92.14-.13,138.2,0,1.59.59,3.58-.15,4.69-1.56,2.35-3.49,5.43-5.84,6.07-3.87,1-6.13-2-6.59-5.83a53.61,53.61,0,0,1-.13-6q0-71.49,0-143c0-14.35-8.68-24-21.44-24.2a21.53,21.53,0,0,0-22.2,18.33,48.9,48.9,0,0,0-.51,8.3q0,147.43,0,294.87Zm-474.77,0v-6.31q0-148.26,0-296.52a44,44,0,0,0-.66-8.27,21.49,21.49,0,0,0-19.81-17.57c-10.47-.59-19.53,5.14-22.46,14.88-1.12,3.71-1.21,7.82-1.21,11.75q-.09,147.36-.05,294.73v7.31ZM750.81,605.7V860h39.76a14.83,14.83,0,0,0,.4-2.2q0-113.38,0-226.77c0-1.6-.54-3.78-1.64-4.71A102.66,102.66,0,0,0,750.81,605.7Zm-84.43-.05c-13.62,3.86-25.21,10.36-36.1,18.4-3.2,2.36-4.27,5-4.26,9q.16,110.41.08,220.82V860h40.28Zm-53.28,35.8c-11.86,6.53-23.43,13.33-35.42,19.25-3.88,1.92-5,3.73-5,7.8q.17,92.87.08,185.72V860H613.1Zm191.2.4V860.12h40.12v-58q0-67-.08-133.93c0-2.06-.6-5.23-2-6C829.69,655.14,816.78,648.46,804.3,641.85ZM483.89,910.75H702V873.61H483.89Zm231.19,0h218V873.65h-218ZM559.66,667c-7.14.85-13.6,1.93-20.1,2.31s-13.32.09-19.91.09V860h40ZM897.42,860.1V670.45l-39.75-2.87V860.1ZM702.06,600.64l-22.87,1.62V853.05c0,1.59-.28,3.28.17,4.73.31,1,1.6,2.48,2.49,2.51,6.65.21,13.31.11,20.21.11Zm13.11.07V860.07h22.39V602.17ZM506.78,860.1v-6.76q0-88.41,0-176.84c0-1.39.29-2.9-.16-4.13-.37-1-1.6-2.47-2.5-2.5-6.66-.21-13.33-.11-20.11-.11V860.1ZM933.12,669.7c-5.66,0-10.81.34-15.89-.1-5.44-.47-7,1.33-7,6.87.2,59.14.12,118.29.12,177.43v6.19h22.76ZM417.58,537.48a31.33,31.33,0,0,0,31,31.75,31.54,31.54,0,1,0-31-31.75Zm582,.95a31.49,31.49,0,1,0-63-1.11c-.34,17.12,13.8,31.67,31,31.91A31.32,31.32,0,0,0,999.54,538.43ZM559.59,608.08l-39.92,3.1v46.87l39.92-3.59Zm298,0v46.46L897.48,658V611.14Zm-231.47,1.27c12.82-5.55,25.14-10.79,37.36-16.27,1.38-.63,3-2.61,3.07-4,.23-14,.14-28.1.14-42.93a102.86,102.86,0,0,0-39.35,21.07,4.62,4.62,0,0,0-1.17,3.17C626.09,583.68,626.12,596.92,626.12,609.39ZM750.43,546.1v34.11c0,11.55,0,11.51,11.07,15.64a96.49,96.49,0,0,1,10.92,4.65c6.07,3.15,12,6.62,18.59,10.3,0-13.88.06-27.12-.09-40.36a6,6,0,0,0-2-3.93A104.38,104.38,0,0,0,750.43,546.1Zm53.44,36.11c0,12,0,25.22,0,38.4a4.11,4.11,0,0,0,1.18,2.55c11.23,11.06,23.75,20.15,39.3,26,0-14.87.05-29.08-.08-43.29a4.31,4.31,0,0,0-1.93-3.14C829.62,595.8,816.77,589,803.87,582.21ZM572.72,649.16c15.69-5.76,28.06-15.1,39.36-26a4.07,4.07,0,0,0,1.14-2.57c.07-13.17,0-26.33,0-38.4-12.79,6.83-25.48,13.51-38,20.45a6.15,6.15,0,0,0-2.41,4.55C572.64,620.82,572.72,634.49,572.72,649.16ZM679.5,589.41l22.39-1.61V541.23L679.5,542.8Zm35.77-48.11v46.57l22.31,1.45V542.75ZM484,656.88h22.36v-46.1H484ZM933.12,611H910.74v45.9h22.38Z"/></svg>