<svg id="Layer_1" data-name="Layer 1" xmlns="http://www.w3.org/2000/svg" viewBox="0 0 1417.32 1417.32"><path d="M608.36,968.28V948.51H463.29a29.35,29.35,0,0,1-6.23-.23c-5-1.1-8.14-4.34-8.21-9.58-.06-5.53,3.1-8.91,8.46-10a32.29,32.29,0,0,1,6.23-.19H608.67V725.46c0-14.74,1.76-16.56,16.25-16.87,1,0,2-.12,3.36-.21V463.11l-45.82,3.24c9.68,18.89,8.9,36.65-6.7,51.43-13.51,12.82-29.52,14-46.68,5.79V710.93c15.91,5.46,32,11,48.08,16.51,10.45,3.61,11.51,5.15,11.51,16.24q0,75.29,0,150.56c0,11.39-2.93,14.28-14.47,14.28H462.38c-10.55,0-13.65-3.15-13.65-13.84q0-76.21,0-152.43c0-9.36,1.53-11.39,10.54-14.31l49.44-16V704.2q0-105.57,0-211.14c0-27.27,15.11-42.75,42.19-44.54,49.43-3.27,98.83-7.09,148.25-10.65,42.15-3,84.29-6.21,126.46-9,23.94-1.57,42.8,16.23,42.91,40.21q.26,58.41,0,116.82c0,4.14,1.08,6.75,4.6,9.19,17.78,12.34,35.33,25,53,37.52,4.27,3,6.84,6.72,5.21,12.18-2.13,7.12-9.7,9.12-16.66,4.22-17.19-12.11-34.28-24.33-51.42-36.5-1.69-1.2-3.42-2.32-5.19-3.51q-43.2,25.71-86,51.18a29.13,29.13,0,0,1-4.94,2.66c-5,1.79-9.16.25-11.88-4.13-3-4.73-2-9.3,2.27-12.8a61.72,61.72,0,0,1,7.92-5c26.25-15.69,52.54-31.3,78.7-47.13,2-1.19,4.27-3.84,4.29-5.83.28-27.89.19-55.79.19-84.49-17.21,8.1-33.33,7.18-47.11-5.72s-16-28.51-9-46.51L709,457.19V708.6c2.51,0,5.11,0,7.72,0,8.15.15,11.81,3.71,11.84,11.88.07,21.24,0,42.48,0,63.72,0,1.21.11,2.43.2,4.36h7.53c58.72,0,117.45.7,176.16-.36,22.34-.4,40.63,15.35,34.73,40.35,3.62,0,7.08-.1,10.52,0,6.68.25,10.59,3.87,10.69,10.46q.28,19.37,0,38.73c-.09,6.92-4,10.61-11.08,10.71-9.33.14-18.68,0-28.43,0v80c3.37,0,6.65-.19,9.9.05,5.58.4,9.47,4.43,9.62,9.62a9.66,9.66,0,0,1-9.67,10.16q-40.29.27-80.58,0a9.61,9.61,0,0,1-9.6-9.6c-.16-5.44,3.83-9.76,9.68-10.19,3.09-.23,6.22,0,9.8,0V888.93H728.94V968.5c9.43,0,18.91,0,28.4,0,5.74,0,9.64,2.51,11,8.14,1.32,5.42-2.69,10.84-8.5,11.71a37.55,37.55,0,0,1-5.62.15H583.07c-1.46,0-2.93.07-4.38,0-5.93-.46-10-4.5-10-10s4-9.74,9.95-9.91c8.74-.25,17.49-.08,26.23-.1C605.92,968.49,606.93,968.37,608.36,968.28ZM708.36,729H629.15V968.16h79.21Zm-20.13-20.7V458.65l-39.23,3V708.34ZM948.26,849H729.14v19.22H948.26ZM469,828.54h99.21v-40.3H469Zm0,59.55h99.21V848.22H469ZM728.9,828.55h187a27,27,0,0,0,3.12-.07c5.53-.6,9.37-4.62,9.44-9.8s-3.74-9.38-9.2-10a37.28,37.28,0,0,0-4.36-.09H734.58c-1.81,0-3.63.15-5.68.24Zm-260.17-60h99.95c0-6.42-.28-12,.1-17.6.27-4-1.19-5.89-5-7.12-13.22-4.3-26.33-9-39.54-13.35a11.58,11.58,0,0,0-6.6-.39q-22.9,7.11-45.61,14.81a5.83,5.83,0,0,0-3.18,4.23C468.53,755.79,468.73,762.44,468.73,768.59ZM889,888.81V968h19.22V888.81ZM568.66,488.44a20,20,0,1,0-19.58,20.21A20.15,20.15,0,0,0,568.66,488.44Zm260.15.22a20,20,0,1,0-20.2-19.56A20.15,20.15,0,0,0,828.81,488.66Z"/></svg>