<svg id="Layer_1" data-name="Layer 1" xmlns="http://www.w3.org/2000/svg" viewBox="0 0 1417.32 1417.32"><path d="M463.79,450.6H953.7a22.37,22.37,0,0,1,13.1,13.11V498c-3.35,7.29-8.41,12.43-17.17,13V937.05c0,19.66-10.06,29.67-29.81,29.67H497.56c-19.64,0-29.7-10.09-29.7-29.78V511.4c-13.93-4-17.17-8.36-17.17-22.4,0-5.55.34-11.12-.08-16.63C449.83,461.84,454,454.59,463.79,450.6Zm468.66,60.75H485V938.08c0,8.58,2.91,11.46,11.54,11.46q125,0,250,0c1.61,0,3.23-.17,5.3-.28v-6.31q0-68.28,0-136.57c0-18.75,10.23-29,29-29q48.38,0,96.76,0c18.68,0,28.92,10.27,28.93,29q0,68.54,0,137.07v6.07h12.38c11.39,0,13.57-2.17,13.57-13.48V511.35ZM468.07,493.27H949.2V468.08H468.07Zm352.23,456V794.6H781.36c-9.81,0-12.31,2.46-12.31,12.11q0,68.49,0,137v5.61Zm17.8-154.61v154.5h51.21V846.67c0-14.11,0-28.21,0-42.31,0-5.8-2.78-9.46-8.11-9.57C866.94,794.5,852.7,794.69,838.1,794.69Z"/><path d="M711.82,751.67c-59.64,2.56-112.41-46.5-114.84-106.75-2.45-60.87,43.47-113.26,104.67-116.51C765.49,525,817.88,572.55,820.5,634.75,823.14,697.32,775.14,749,711.82,751.67ZM682.74,615.41c-4.26,34.84-19,63.61-44.28,86.84,11.26,16,43.33,32.32,61.16,31.16V614.28Zm35,118c18.5.94,50.17-15.19,60.6-30.17C770.38,693.2,762,683.78,755,673.43c-11-16.22-16.95-34.52-19.83-53.87-.24-1.55-1.67-4-2.84-4.16-4.73-.75-9.57-.79-14.66-1.11Zm-89.84-45c20.27-19.26,32.65-42,37.07-70-19.25,3.34-35.35,11-49.19,23.29a4.24,4.24,0,0,0-1.32,3A92.35,92.35,0,0,0,627.86,688.48Zm161.83,0c8.09-13.75,12.43-27.71,13.23-42.7a7.18,7.18,0,0,0-2.3-5A93,93,0,0,0,763.74,621c-3.45-1-7-1.56-11.27-2.5C757.12,646.56,769.34,669.33,789.69,688.51ZM662.33,557.63c10.13,11.07,16.74,23.45,19.45,37.86a3.93,3.93,0,0,0,3,2.32c5-.07,9.94-.54,15.06-.88v-51A87.67,87.67,0,0,0,662.33,557.63Zm55.43-11.39V597c4.7.3,9,.42,13.37.9,3.07.35,4.38-.44,5-3.76a68.78,68.78,0,0,1,12.35-28.34c2-2.77,4.24-5.38,6.38-8.07C745.1,551.27,728.45,546.13,717.76,546.24Zm-69.89,21.27Q624.08,588.09,617,617.06l47.87-17.88C663.1,587.55,657.48,576.85,647.87,567.51ZM800.5,617.07a93.94,93.94,0,0,0-30.89-49.53c-9.6,9.17-15.29,20-17,31.63Z"/><path d="M613.74,915.18q-41.32,0-82.65,0c-18.25,0-28.85-10.55-28.86-28.71q0-40.32,0-80.63c0-17.82,10.69-28.43,28.62-28.44q83.4,0,166.8,0c17.65,0,28.25,10.62,28.26,28.2q0,40.81,0,81.64c0,17.22-10.72,27.91-28,27.93Q655.82,915.23,613.74,915.18ZM614,794.6q-41.31,0-82.63,0c-9,0-11.91,2.83-11.91,11.65q0,40.07,0,80.11c0,8.6,3,11.62,11.44,11.62q83.14,0,166.28,0c8.85,0,11.59-2.85,11.59-11.9q0-39.55,0-79.11c0-9.88-2.54-12.37-12.64-12.37Z"/><path d="M546.76,880.66c-7.69.15-12-6.77-9-12.46a11.63,11.63,0,0,1,2.13-2.77q25.06-25.12,50.17-50.21c3.2-3.2,6.91-4.19,11-2,3.69,2,5,5.41,4,9.41a10.8,10.8,0,0,1-2.74,4.66q-25,25.19-50.2,50.17C550.33,879.12,547.87,880,546.76,880.66Z"/><path d="M544,838c-1.67-1.33-5-2.76-6.07-5.18a10.61,10.61,0,0,1,.71-8.73c2.66-3.94,6.42-7.26,10.14-10.34,3.14-2.6,7-2.4,10.2.13,3,2.35,5,6.19,2.66,9.23-4,5.16-9.11,9.47-13.84,14C547.34,837.67,546.26,837.57,544,838Z"/></svg>