<svg id="Layer_1" data-name="Layer 1" xmlns="http://www.w3.org/2000/svg" viewBox="0 0 1417.32 1417.32"><path d="M590.55,665.6c-1.79-2.81-2.87-4.62-4.06-6.35q-42.66-61.85-85.32-123.7c-12.4-18-12-39.37.7-55.31,19.16-24,55-22.62,73.22,3.24,19.66,28,38.9,56.21,58.31,84.34,31.35,45.44,62.57,91,94.12,136.25,7.52,10.81,11.58,22.19,10.05,35.35-1.15,9.93,3,18,8.91,25.4.95,1.2,2.86,1.89,4.45,2.26,3.05.69,6.19,1,10,1.54,1.8-3.81,3.72-7.83,5.59-11.87,6.85-14.78,13.66-29.58,20.55-44.34,1.22-2.63,2-4.59-.86-7.11-23.47-20.64-36-47.49-38.61-77.84C741.09,553.18,768.73,493.64,830,451c26.28-18.3,56.21-26.38,88.45-19.73,39.66,8.18,64.54,33.59,77.37,70.86,16.1,46.73,9,92-12.75,135.17-19.54,38.85-48.45,68.42-89.64,84.53-17.63,6.89-35.94,9.91-54.87,7.06-4-.6-6,.44-7.63,4.18C825.24,746,819.21,758.72,813,772.14a34.4,34.4,0,0,0,3.72.18c32.74-2.12,65.52-3.86,98.21-6.59,14.85-1.24,28,.78,39.52,10.9,5.29,4.66,11.33,8.46,17,12.7,9.64,7.24,9.29,16.07-.94,22.66s-20.81,13.26-30.35,19.33c8.25,8.86,16.38,17.61,24.55,26.33,1.47,1.57,3.13,3,4.62,4.54,7,7.32,5.35,16.45-3.93,20.53-11.68,5.13-23.49,9.95-35.24,14.91-2.14.91-4.25,1.91-7.11,3.19,1.91,2.81,3.6,5.35,5.35,7.85,5.75,8.2,11.68,16.28,17.24,24.62,5.33,8,2.36,16.29-6.87,19-10.53,3.11-21.13,6.06-31.84,8.49a33.66,33.66,0,0,1-23.49-3c-2.78-1.45-5.56-2.88-6.92-3.58-10.82,7.81-20.71,15.45-31.11,22.32a32.36,32.36,0,0,1-38.48-2c-11.51-9.37-12.25-19.34-1.72-30.53L789.72,921.6c-4.12-6-8.32-11.92-12.34-18-5.67-8.52-14.33-11.48-24-13.08,11.68,9.47,19.86,20.94,22.37,35.94A51.58,51.58,0,0,1,766,967.12a52.83,52.83,0,0,1-61.68,17.61c-25-9.73-35.57-31.09-31.94-65.29-30.5,29.83-66.46,45.63-108.79,45.73-32.42.07-61.84-9.63-88.18-28.48-51.26-36.7-74.31-103-56.89-163.56A151.24,151.24,0,0,1,517,670.83C540.72,663,564.94,661.75,590.55,665.6ZM731,767.34c-7.6-10.3-7.68-22.29-7.65-34.64a31.68,31.68,0,0,0-5.37-17q-76.9-112.28-154.43-224.12c-10.53-15.24-29.59-18.84-44-8.8s-17.57,28.92-7,44.28q48.4,70.39,97.06,140.6a12.56,12.56,0,0,0,5.18,4.39c4.65,1.92,7.6,4.81,5.63,9.87s-6.17,4.94-10.87,3.46c-7.57-2.4-15.3-4.29-23.48-6.53-4.86,30.94,2.57,57.25,21.43,80.09l47.06-47.28a17.76,17.76,0,0,1-2.33-1.84c-3.19-3.32-3.77-7-.37-10.38s7.06-2.5,10.46.46a149.73,149.73,0,0,1,44.74,66.68c1.23,3.69,2.34,7.44,3.42,10.91ZM990.73,552.79c-1-9.19-1.52-18.25-3.17-27.09-4.72-25.22-15-47.76-35.75-63.8-30.79-23.8-64.26-23.78-98.25-8-37,17.17-61.73,46.52-78,83.2-15.18,34.14-20.44,69.64-10.56,106.26,8.79,32.6,27.19,57.44,60.51,68.26,27.91,9.06,54.76,3.88,79.3-10.62C961,667.79,986.15,616.2,990.73,552.79ZM518.64,848.24l32.84-33.08-90.94-91.48c-24.19,27.93-35.69,60.7-34,98.76C461.56,817.65,492,826.25,518.64,848.24Zm45.89-22.65c-11.79,11.49-23.23,22.66-34.75,33.9,21.91,26.32,30.18,56.81,25.5,91.37,38.4,1.69,71.29-9.93,99.58-34.45Zm10.6-11.71,90.93,91.38C690.53,877,702.2,844.14,700.27,806c-35.27,5-65.61-3.79-91.69-25.64Zm-102.68-102q46,46.24,90.94,91.42l33.88-34.33c-22-26-30.48-56.57-25.6-91.2C533.22,676,500.39,687.6,472.45,711.84ZM779.87,842.45c43.41,15.81,86.12,31.37,128.85,46.88a5.94,5.94,0,0,0,3.88.26c14.78-6.11,29.51-12.37,43.11-18.11-10.07-10.74-20.06-21.48-30.19-32.08-.78-.82-2.47-1-3.76-1.06q-53.14-3.93-106.3-7.76c-10.72-.78-21.45-1.43-32.52-2.17C781.9,833.18,781,837.52,779.87,842.45ZM786,814a43.94,43.94,0,0,0,4.34.74q63.48,4.69,127,9.26c3.22.23,7.06,0,9.69-1.5,11.82-6.94,23.31-14.45,35.58-22.17-8.76-6.35-16.63-12.54-25-17.9-3.1-2-7.42-2.69-11.2-2.77-6.66-.14-13.33.63-20,1q-55.59,3.55-111.17,7.24c-1.49.11-3.83,1.6-4.15,2.86C789.13,798.34,787.69,806,786,814ZM932.68,939.32c-7.07-10-13.25-19.59-20.34-28.43-3.26-4-7.85-7.91-12.64-9.7-36.35-13.62-72.89-26.72-109.39-40-4.34-1.58-8.74-3-13.42-4.6-1.65,7.49-3.42,14.33-4.51,21.28-.25,1.57,1.4,4.33,2.94,5.17,37.69,20.61,75.4,41.22,113.39,61.27,4.62,2.44,11.11,3,16.39,2.19C914.14,945.14,922.91,942,932.68,939.32ZM723.86,974.17a38.85,38.85,0,0,0-.51-77.7c-21.09.1-38.57,17.68-38.63,38.86A39,39,0,0,0,723.86,974.17ZM461.63,905.72c1.54-1.44,2.85-2.58,4.07-3.81q21.36-21.45,42.69-42.91c-16.34-18.09-58.38-29.48-79.54-21.67C429,855.05,444.56,887.83,461.63,905.72Zm10.89,10.94a134.19,134.19,0,0,0,67.8,32.46c7.86-21.8-3.81-64.37-21.16-79.38ZM698.73,791.77c-4.78-26.71-15.67-49.31-33-68.52l-46.91,47.1C641.89,789.24,668.27,796.53,698.73,791.77Zm30.36,79.34c6.55-30.58,12.87-60,19.3-90.06-8.67-.5-16.31.76-23.35,4.62-7.61,4.17-11.92,9.84-10.83,19.5,1.79,16-.32,31.75-4.35,47.27-2.56,9.89-1.34,12.46,8.45,16C721.56,869.63,725.05,870.14,729.09,871.11Zm29,5.28c6.43-30.07,12.76-59.64,19.15-89.56l-14.94-3.12c-6.46,30.21-12.79,59.74-19.17,89.57Zm42.56-159.86-25.47,55.21c2.94.7,5.18,1.33,7.47,1.77,11.06,2.13,13.81.73,18.42-9.26,1-2.13,1.92-4.29,2.9-6.42q7.57-16.43,15.18-32.87Zm61.69,231.66-1-2.21c-5.15-2.8-10.2-5.8-15.5-8.28a6.85,6.85,0,0,0-5.66.28c-8.69,5.65-17.11,11.74-25.75,17.49-3.31,2.21-2.82,4.11-.39,6.5,5.37,5.32,12.4,7.92,18.8,4.72C843.2,961.51,852.58,954.46,862.35,948.19Zm-58.76-33.55-.83.88,14.43,20.94,11.75-8.06ZM694.47,890.25l19.78-7.73L701.8,876C699.31,880.86,697,885.33,694.47,890.25Z"/><path d="M597.79,606.32c-1.23,1.45-2.45,4.11-4.41,4.89s-4.91.17-7.1-.66c-1.41-.54-2.37-2.5-3.33-4q-23.69-35.51-47.31-71a19.08,19.08,0,0,1-1.85-3c-1.56-3.74-1.09-7.64,2.75-8.94,2.52-.86,7.45-.24,8.66,1.53,17.41,25.4,34.38,51.11,51.4,76.78C597.21,602.84,597.23,604.14,597.79,606.32Z"/><path d="M526,502.25a9.38,9.38,0,0,1,8.94,9.09c-.09,4.51-2.75,6.8-7,7-3.87.18-8.5-4.94-8.31-9.12C519.79,504.85,522.33,502.55,526,502.25Z"/><path d="M977,556.7c-4.62,58.13-27.77,104.87-81.23,132-30.22,15.36-60.89,14.6-88.65-7.22-18.35-14.43-27.37-34.59-31.43-57-10.41-57.72,22.15-124.79,73.88-152.08,24.82-13.09,50.69-17.06,77-5.11,26.63,12.07,40.52,34.47,46.72,62.09C975.35,538.32,975.84,547.6,977,556.7ZM827.24,590.29l29,13.24L867,579.9l-28.87-13.25C834.38,574.86,831,582.28,827.24,590.29Zm33.73-73,29,13.22c3.76-8.2,7.23-15.75,10.84-23.63l-28.89-13.24Zm8.1,92.23L898,622.79c3.74-8.14,7.23-15.71,10.88-23.64L880,585.89C876.3,593.84,872.86,601.28,869.07,609.5Zm-29.75,30.6,10.9-23.67-28.93-13.24L810.43,626.8ZM902.8,536.43l28.89,13.36,10.91-23.62-28.87-13.34ZM855,530.1c-3.78,8.27-7.24,15.81-10.83,23.66L873,567.05l10.9-23.65Zm41.86,19.25L885.94,573l28.9,13.31c3.67-8,7.17-15.52,10.9-23.62Zm-15.74,110L892,635.68l-28.88-13.27c-3.68,8-7.19,15.54-10.9,23.58Zm40.67-54.27c-3.69,8-7.24,15.72-10.9,23.65l23.36,10.72c4.62-7.59,9-14.73,13.61-22.34Zm-122.61-56.4c-2.54,7.82-4.9,14.65-6.89,21.59-.36,1.24.35,3.77,1.31,4.26,6.72,3.43,13.63,6.48,20.79,9.79l10.85-23.68ZM938.6,568.63l-10.83,23.61c8.81,4,16.91,7.77,25.85,11.86,2.06-7.82,4.15-15.11,5.78-22.5a5.13,5.13,0,0,0-2.16-4.35C951.35,574.23,945.24,571.64,938.6,568.63Zm-96.47-44.44-21.87-10.05L805.47,536l25.77,11.81C835,539.71,838.38,532.31,842.13,524.19ZM823.07,675.31l10.26-22.37-29.67-13.58c-1.21,4.88-4.18,9.82-2.82,12.71C805.45,661.9,813.08,669.51,823.07,675.31Zm51.41-3.38-28.22-13c-3.54,7.67-6.86,14.86-10.88,23.55l23.78,1.93C867.57,685.08,873.15,681.92,874.48,671.93Zm39.79-194.14c-10.93-3.88-21.39-4-31.88-2.13-1.74.31-3.11,2.69-5.29,4.7L906.72,494ZM905,641.62l-11.32,24.52c4.22.65,8.62,2.78,10.74,1.4,7.09-4.61,13.36-10.49,20.77-16.56Zm22.11-157.7c-2.5,5.42-4.83,10.47-7.39,16l28.56,13.18C951.91,506.09,941.33,491.66,927.06,483.92ZM808.44,597.18l-20.16-9.1c0,7.93-.13,14.74,0,21.55.19,8.17.65,8.56,9.56,10.42C801.28,612.68,804.72,605.24,808.44,597.18Zm39.63-85.91c2.08-4.47,3.82-8.16,5.51-11.87s3.45-7.69,5.16-11.51c-5.72-2.76-19.77,5.66-27.14,15.82ZM962.77,564c-.85-10.16-1.38-18.71-2.43-27.2-.21-1.71-2.38-3.17-4.4-5.68l-11.33,24.52Z"/></svg>